<?xml version="1.0" standalone="no"?><!DOCTYPE svg PUBLIC "-//W3C//DTD SVG 1.1//EN" "http://www.w3.org/Graphics/SVG/1.1/DTD/svg11.dtd"><svg t="1780580543785" class="icon" viewBox="0 0 1024 1024" version="1.1" xmlns="http://www.w3.org/2000/svg" p-id="5498" width="16" height="16" xmlns:xlink="http://www.w3.org/1999/xlink"><path d="M597.333333 170.666667h85.333334a213.333333 213.333333 0 0 1 213.333333 213.333333v170.666667h-85.333333V384a128 128 0 0 0-128-128h-85.333334v128L384 213.333333l213.333333-170.666666v128z m42.666667 298.666666v426.666667a42.666667 42.666667 0 0 1-42.666667 42.666667H170.666667a42.666667 42.666667 0 0 1-42.666667-42.666667V469.333333a42.666667 42.666667 0 0 1 42.666667-42.666666h426.666666a42.666667 42.666667 0 0 1 42.666667 42.666666z" fill="#515151" p-id="5499"></path></svg>