<?xml version="1.0" standalone="no"?><!DOCTYPE svg PUBLIC "-//W3C//DTD SVG 1.1//EN" "http://www.w3.org/Graphics/SVG/1.1/DTD/svg11.dtd"><svg t="1780640845509" class="icon" viewBox="0 0 1024 1024" version="1.1" xmlns="http://www.w3.org/2000/svg" p-id="5260" width="16" height="16" xmlns:xlink="http://www.w3.org/1999/xlink"><path d="M426.666667 170.666667V42.666667l213.333333 170.666666-213.333333 170.666667V256H341.333333a128 128 0 0 0-128 128v170.666667H128V384a213.333333 213.333333 0 0 1 213.333333-213.333333h85.333334z m-42.666667 298.666666a42.666667 42.666667 0 0 1 42.666667-42.666666h426.666666a42.666667 42.666667 0 0 1 42.666667 42.666666v426.666667a42.666667 42.666667 0 0 1-42.666667 42.666667H426.666667a42.666667 42.666667 0 0 1-42.666667-42.666667V469.333333z" fill="#515151" p-id="5261"></path></svg>