<?xml version="1.0" standalone="no"?><!DOCTYPE svg PUBLIC "-//W3C//DTD SVG 1.1//EN" "http://www.w3.org/Graphics/SVG/1.1/DTD/svg11.dtd"><svg t="1779169580545" class="icon" viewBox="0 0 1024 1024" version="1.1" xmlns="http://www.w3.org/2000/svg" p-id="6265" width="32" height="32" xmlns:xlink="http://www.w3.org/1999/xlink"><path d="M840.6 894.9H183.4c-35.6 0-67.4-18.4-85.2-49.2-17.8-30.8-17.8-67.6 0-98.4l328.6-569.1c17.8-30.8 49.6-49.2 85.2-49.2s67.4 18.4 85.2 49.2l328.6 569.1c17.8 30.8 17.8 67.6 0 98.4-17.8 30.9-49.6 49.2-85.2 49.2zM512 189.1c-6.7 0-23.2 1.9-33.2 19.2L150.2 777.4c-10 17.3-3.3 32.6 0 38.4s13.2 19.2 33.2 19.2h657.2c20 0 29.9-13.4 33.2-19.2s10-21.1 0-38.4L545.2 208.3c-10-17.4-26.5-19.2-33.2-19.2z" fill="#CC0000" p-id="6266"></path><path d="M485.3 727.3c0-9.5 3.3-17.4 10-23.9 6.7-6.4 14.7-9.6 24-9.6 9.1 0 17 3.3 23.7 10 6.7 6.7 10 14.5 10 23.5 0 8.8-3.3 16.5-9.8 23.1-6.5 6.6-14.1 9.9-22.7 9.9-10.5 0-19.1-3.3-25.6-9.9-6.3-6.7-9.6-14.4-9.6-23.1z m60.4-380.8l-6.1 292.1h-42.2l-5.8-292.1h54.1z" fill="#CC0000" p-id="6267"></path></svg>