<?xml version="1.0" standalone="no"?><!DOCTYPE svg PUBLIC "-//W3C//DTD SVG 1.1//EN" "http://www.w3.org/Graphics/SVG/1.1/DTD/svg11.dtd"><svg t="1778137094144" class="icon" viewBox="0 0 1024 1024" version="1.1" xmlns="http://www.w3.org/2000/svg" p-id="7410" width="16" height="16" xmlns:xlink="http://www.w3.org/1999/xlink"><path d="M512 909.061224c-218.906122 0-397.061224-178.155102-397.061224-397.061224s178.155102-397.061224 397.061224-397.061224 397.061224 178.155102 397.061224 397.061224-178.155102 397.061224-397.061224 397.061224z" fill="#F2CB51" p-id="7411"></path><path d="M512 690.677551m-31.346939 0a31.346939 31.346939 0 1 0 62.693878 0 31.346939 31.346939 0 1 0-62.693878 0Z" fill="#E5404F" p-id="7412"></path><path d="M512 584.097959c-11.493878 0-20.897959-9.404082-20.897959-20.897959v-261.22449c0-11.493878 9.404082-20.897959 20.897959-20.897959s20.897959 9.404082 20.897959 20.897959v261.22449c0 12.016327-9.404082 20.897959-20.897959 20.897959z" fill="#E5404F" p-id="7413"></path></svg>